<?xml version="1.0" encoding="utf-8"?>
<!-- Generator: Adobe Illustrator 27.0.1, SVG Export Plug-In . SVG Version: 6.00 Build 0)  -->
<svg version="1.1" id="Layer_1" xmlns="http://www.w3.org/2000/svg" xmlns:xlink="http://www.w3.org/1999/xlink" x="0px" y="0px"
	 viewBox="0 0 27 27" style="enable-background:new 0 0 27 27;" xml:space="preserve">
<style type="text/css">
	.st0{fill:#E31936;}
	.st1{fill:#FFFFFF;}
</style>
<rect class="st0" width="27" height="27"/>
<g>
	<g>
		<path class="st1" d="M5.75,11.9h2.68c0,0,0.02-1.81-0.02-2.52C8.38,8.67,7.96,6.77,4.85,6.79c-3.05,0.02-3.71,2.46-3.71,3.46
			c0,1-0.04,6.54,0,7.89c0.04,1.35,0.96,3.19,3.68,3.19c2.83,0.01,3.59-1.53,3.61-2.67c0.03-1.31,0-2.44,0-2.44H5.75
			c0,0-0.01,1.29-0.01,1.95c0,0.48-0.25,1.14-0.93,1.08C4,19.18,3.99,18.59,3.99,17.7c0-0.98,0-6.5,0-7.35c0-0.85,0.27-1.5,0.9-1.48
			c0.61,0.01,0.87,0.5,0.86,1.48C5.75,11.25,5.75,11.9,5.75,11.9z"/>
		<path class="st1" d="M16.75,11.73c0,0-0.01-1.03-0.01-2.27c0-1.23-0.47-2.67-3.25-2.65c-2.79,0.01-3.45,1.56-3.56,2.96
			c-0.09,1.26,0.02,2.11,0.13,2.42c0.1,0.26,0.27,0.67,1.14,1.46c0.83,0.76,2.1,1.77,2.6,2.37c0.44,0.53,0.4,1.44,0.4,1.73
			c0,0.29,0,1.03-0.19,1.27c-0.16,0.21-0.41,0.27-0.74,0.25c-0.43-0.03-0.8-0.1-0.79-1.06c0-0.94,0.01-1.94,0.01-1.94L9.8,16.27
			c0,0,0,2.01,0.01,2.53c0.02,0.43,0.27,1.4,0.8,1.82c0.71,0.57,1.41,0.73,2.57,0.73c1.39-0.01,2.29-0.29,2.9-0.96
			c0.49-0.53,0.8-1.31,0.8-2.97c0-1.73-0.35-2.44-1.51-3.58c-1.19-1.17-2.37-1.95-2.64-2.6c-0.21-0.5-0.15-1.38-0.11-1.74
			c0.03-0.33,0.16-0.63,0.68-0.62c0.4,0.01,0.65,0.1,0.78,0.51c0.12,0.4,0.08,2.33,0.08,2.33H16.75z"/>
		<path class="st1" d="M25.86,6.96v14.21l-2.53,0v-1.74c0,0-0.24,2.07-2.88,1.89c-2.61-0.18-2.21-3.19-2.2-4.22
			c0.01-0.62,0-10.15,0-10.15h2.86v11.05c0,0,0.01,0.58,0.17,0.77c0.19,0.23,0.37,0.31,0.71,0.31c0.35,0,0.61-0.13,0.78-0.36
			C22.93,18.5,23,18.03,23,17.79c0-0.23,0-10.84,0-10.84H25.86z"/>
	</g>
</g>
</svg>
